<?xml version="1.0" encoding="UTF-8"?>
<svg xmlns="http://www.w3.org/2000/svg" xmlns:xlink="http://www.w3.org/1999/xlink" width="105.19" height="176.056" viewBox="0 0 105.19 176.056">
<defs>
<clipPath id="clip-0">
<path clip-rule="nonzero" d="M 0 0 L 105.191406 0 L 105.191406 173 L 0 173 Z M 0 0 "/>
</clipPath>
<clipPath id="clip-1">
<path clip-rule="nonzero" d="M 0 3 L 105.191406 3 L 105.191406 176.054688 L 0 176.054688 Z M 0 3 "/>
</clipPath>
<clipPath id="clip-2">
<path clip-rule="nonzero" d="M 0 46 L 105.191406 46 L 105.191406 176.054688 L 0 176.054688 Z M 0 46 "/>
</clipPath>
<clipPath id="clip-3">
<path clip-rule="nonzero" d="M 0 0 L 105.191406 0 L 105.191406 131 L 0 131 Z M 0 0 "/>
</clipPath>
</defs>
<path fill="none" stroke-width="5.97766" stroke-linecap="round" stroke-linejoin="miter" stroke="rgb(0%, 0%, 0%)" stroke-opacity="1" stroke-miterlimit="10" d="M -0.00184375 -0.00053125 L -0.00184375 141.733844 " transform="matrix(1, 0, 0, -1, 17.162, 158.894)"/>
<g clip-path="url(#clip-0)">
<path fill="none" stroke-width="5.97766" stroke-linecap="round" stroke-linejoin="miter" stroke="rgb(0%, 0%, 0%)" stroke-opacity="1" stroke-miterlimit="10" d="M -0.00184375 70.866656 L 70.865344 141.733844 " transform="matrix(1, 0, 0, -1, 17.162, 158.894)"/>
</g>
<g clip-path="url(#clip-1)">
<path fill="none" stroke-width="5.97766" stroke-linecap="round" stroke-linejoin="miter" stroke="rgb(0%, 0%, 0%)" stroke-opacity="1" stroke-miterlimit="10" d="M -0.00184375 70.866656 L 70.865344 -0.00053125 " transform="matrix(1, 0, 0, -1, 17.162, 158.894)"/>
</g>
<g clip-path="url(#clip-2)">
<path fill="none" stroke-width="5.97766" stroke-linecap="round" stroke-linejoin="miter" stroke="rgb(0%, 0%, 0%)" stroke-opacity="1" stroke-miterlimit="10" d="M -0.00184375 -0.00053125 L 42.521594 28.347125 " transform="matrix(1, 0, 0, -1, 17.162, 158.894)"/>
</g>
<g clip-path="url(#clip-3)">
<path fill="none" stroke-width="5.97766" stroke-linecap="round" stroke-linejoin="miter" stroke="rgb(0%, 0%, 0%)" stroke-opacity="1" stroke-miterlimit="10" d="M -0.00184375 141.733844 L 42.521594 113.386188 " transform="matrix(1, 0, 0, -1, 17.162, 158.894)"/>
</g>
</svg>
