<?xml version="1.0" encoding="UTF-8"?>
<svg xmlns="http://www.w3.org/2000/svg" xmlns:xlink="http://www.w3.org/1999/xlink" width="76.844" height="147.71" viewBox="0 0 76.844 147.71">
<defs>
<clipPath id="clip-0">
<path clip-rule="nonzero" d="M 0 0 L 6 0 L 6 147.710938 L 0 147.710938 Z M 0 0 "/>
</clipPath>
<clipPath id="clip-1">
<path clip-rule="nonzero" d="M 0 0 L 76.84375 0 L 76.84375 147.710938 L 0 147.710938 Z M 0 0 "/>
</clipPath>
<clipPath id="clip-2">
<path clip-rule="nonzero" d="M 0 31 L 76.84375 31 L 76.84375 147.710938 L 0 147.710938 Z M 0 31 "/>
</clipPath>
<clipPath id="clip-3">
<path clip-rule="nonzero" d="M 0 0 L 76.84375 0 L 76.84375 116 L 0 116 Z M 0 0 "/>
</clipPath>
</defs>
<g clip-path="url(#clip-0)">
<path fill="none" stroke-width="5.97766" stroke-linecap="round" stroke-linejoin="miter" stroke="rgb(0%, 0%, 0%)" stroke-opacity="1" stroke-miterlimit="10" d="M -0.00071875 -0.00165625 L -0.00071875 141.732719 " transform="matrix(1, 0, 0, -1, 2.989, 144.721)"/>
</g>
<g clip-path="url(#clip-1)">
<path fill="none" stroke-width="5.97766" stroke-linecap="round" stroke-linejoin="miter" stroke="rgb(0%, 0%, 0%)" stroke-opacity="1" stroke-miterlimit="10" d="M -0.00071875 70.865531 L 70.866469 141.732719 " transform="matrix(1, 0, 0, -1, 2.989, 144.721)"/>
<path fill="none" stroke-width="5.97766" stroke-linecap="round" stroke-linejoin="miter" stroke="rgb(0%, 0%, 0%)" stroke-opacity="1" stroke-miterlimit="10" d="M -0.00071875 70.865531 L 70.866469 -0.00165625 " transform="matrix(1, 0, 0, -1, 2.989, 144.721)"/>
</g>
<g clip-path="url(#clip-2)">
<path fill="none" stroke-width="5.97766" stroke-linecap="round" stroke-linejoin="miter" stroke="rgb(0%, 0%, 0%)" stroke-opacity="1" stroke-miterlimit="10" d="M -0.00071875 -0.00165625 L 42.518813 28.346 " transform="matrix(1, 0, 0, -1, 2.989, 144.721)"/>
</g>
<g clip-path="url(#clip-3)">
<path fill="none" stroke-width="5.97766" stroke-linecap="round" stroke-linejoin="miter" stroke="rgb(0%, 0%, 0%)" stroke-opacity="1" stroke-miterlimit="10" d="M -0.00071875 141.732719 L 42.518813 113.388969 " transform="matrix(1, 0, 0, -1, 2.989, 144.721)"/>
</g>
</svg>
